<svg width="25" height="25" viewBox="0 0 25 25" fill="none" xmlns="http://www.w3.org/2000/svg">
<path fill-rule="evenodd" clip-rule="evenodd" d="M5.20833 6.51041C4.4486 6.51041 3.71998 6.81221 3.18277 7.34942C2.64555 7.88664 2.34375 8.61526 2.34375 9.37499V18.75C2.34375 19.5097 2.64555 20.2383 3.18277 20.7756C3.71998 21.3128 4.4486 21.6146 5.20833 21.6146H19.7917C20.5514 21.6146 21.28 21.3128 21.8172 20.7756C22.3544 20.2383 22.6562 19.5097 22.6562 18.75V9.37499C22.6562 8.61526 22.3544 7.88664 21.8172 7.34942C21.28 6.81221 20.5514 6.51041 19.7917 6.51041H5.20833ZM17.1875 12.7604C16.8422 12.7604 16.511 12.8976 16.2668 13.1418C16.0226 13.386 15.8854 13.7172 15.8854 14.0625C15.8854 14.4078 16.0226 14.739 16.2668 14.9832C16.511 15.2274 16.8422 15.3646 17.1875 15.3646C17.5328 15.3646 17.864 15.2274 18.1082 14.9832C18.3524 14.739 18.4896 14.4078 18.4896 14.0625C18.4896 13.7172 18.3524 13.386 18.1082 13.1418C17.864 12.8976 17.5328 12.7604 17.1875 12.7604Z" fill="black" fill-opacity="0.72"/>
<path d="M17.1719 3.19687C17.4803 3.11468 17.8035 3.10446 18.1165 3.16699C18.4295 3.22951 18.7239 3.36312 18.9771 3.5575C19.2302 3.75188 19.4354 4.00183 19.5766 4.28806C19.7178 4.57429 19.7914 4.88915 19.7917 5.20833H9.375L17.1719 3.19687Z" fill="black" fill-opacity="0.72"/>
</svg>
